<svg width="314" height="143" viewBox="0 0 314 143" fill="none" xmlns="http://www.w3.org/2000/svg">
<g filter="url(#filter0_d_1_2)">
<path d="M24.786 50.5425C24.8192 38.5105 26.7705 27.1559 30.6399 16.4785C27.8888 16.1509 26.2253 15.9863 25.6493 15.9847C23.0893 15.9777 20.9759 16.4838 19.309 17.5033C17.7064 18.4588 16.0712 19.6063 14.4035 20.9458C11.9659 22.9871 9.4351 24.0041 6.81111 23.9969C5.72311 23.9939 4.89173 23.7676 4.31697 23.318C3.74238 22.8044 3.3918 22.2914 3.26521 21.7791C3.13862 21.2667 3.04473 20.4985 2.98355 19.4743C2.92238 18.4501 2.82858 17.6499 2.70217 17.0735C2.57576 16.4972 2.51334 15.921 2.51493 15.345C2.51652 14.769 2.99845 14.0663 3.96074 13.237C9.47812 8.38814 17.7088 5.97881 28.6528 6.00896C30.7647 6.01478 32.8765 6.11659 34.9879 6.31441L35.7607 4.58854C36.0795 5.03741 36.4938 5.64656 37.0037 6.41597L38.8277 6.42099C44.8436 6.43757 51.439 5.23973 58.6136 2.82748C59.126 2.7009 59.4782 2.63787 59.6702 2.6384C60.6941 2.64122 61.2046 3.18663 61.2017 4.27462C61.1987 5.36262 60.6196 6.48103 59.4644 7.62985C53.7511 13.8861 46.1587 16.9372 36.6871 16.7831C35.07 22.9867 33.9611 30.5677 33.3604 39.5261C32.7597 48.4844 32.3937 53.5714 32.2624 54.7871C32.131 56.0027 32.0641 57.0585 32.0617 57.9545C32.0592 58.8505 32.3423 60.6113 32.9111 63.2369C33.4799 65.8625 33.7637 67.3673 33.7627 67.7513C33.7576 69.6073 32.795 70.5326 30.875 70.5273C27.931 70.5192 24.868 67.2468 21.686 60.71C21.0492 59.5562 20.7322 58.4673 20.735 57.4433C20.738 56.3553 20.9955 55.8121 21.5075 55.8135C22.0195 55.8149 22.6261 56.3285 23.3273 57.3545C24.0924 58.3806 24.571 58.8939 24.763 58.8944C24.955 58.895 25.0517 58.6392 25.0532 58.1272L24.786 50.5425ZM61.3484 50.6432C61.3816 38.6112 63.3328 27.2566 67.2023 16.5792C64.4512 16.2516 62.7876 16.087 62.2116 16.0854C59.6516 16.0784 57.5382 16.5846 55.8714 17.604C54.2688 18.5596 52.6336 19.7071 50.9659 21.0465C48.5283 23.0878 45.9975 24.1048 43.3735 24.0976C42.2855 24.0946 41.4541 23.8683 40.8793 23.4187C40.3047 22.9051 39.9542 22.3922 39.8276 21.8798C39.701 21.3675 39.6071 20.5992 39.5459 19.575C39.4847 18.5508 39.3909 17.7506 39.2645 17.1742C39.1381 16.5979 39.0757 16.0217 39.0773 15.4457C39.0789 14.8697 39.5608 14.167 40.5231 13.3377C46.0405 8.48887 54.2712 6.07954 65.2151 6.10969C67.3271 6.11551 69.4388 6.21732 71.5503 6.41514L72.3231 4.68927C72.6418 5.13814 73.0561 5.74729 73.566 6.5167L75.39 6.52172C81.406 6.5383 88.0013 5.34046 95.176 2.92821C95.6883 2.80163 96.0405 2.7386 96.2325 2.73913C97.2565 2.74195 97.767 3.28736 97.764 4.37535C97.761 5.46335 97.1819 6.58176 96.0268 7.73058C90.3135 13.9869 82.7211 17.038 73.2495 16.8839C71.6324 23.0874 70.5235 30.6684 69.9228 39.6268C69.3221 48.5852 68.9561 53.6722 68.8247 54.8878C68.6934 56.1035 68.6265 57.1593 68.624 58.0553C68.6215 58.9513 68.9047 60.7121 69.4735 63.3376C70.0422 65.9632 70.3261 67.468 70.325 67.852C70.3199 69.708 69.3574 70.6333 67.4374 70.6281C64.4934 70.6199 61.4304 67.3475 58.2484 60.8107C57.6116 59.6569 57.2946 58.5681 57.2974 57.5441C57.3004 56.4561 57.5579 55.9128 58.0699 55.9142C58.5819 55.9156 59.1885 56.4293 59.8896 57.4552C60.6548 58.4813 61.1334 58.9946 61.3254 58.9952C61.5174 58.9957 61.6141 58.74 61.6155 58.228L61.3484 50.6432ZM125.691 2.82028C127.291 2.82469 128.73 3.24466 130.007 4.08018C131.285 4.8517 131.923 5.87746 131.919 7.15746C131.912 9.71745 129.411 11.5666 124.416 12.7048C121.854 13.2738 119.421 13.5231 117.118 13.4527C114.814 13.3824 112.542 13.3441 110.302 13.3379C107.731 17.1069 106.441 21.0073 106.43 25.0393C106.424 27.2153 106.895 30.4166 107.843 34.6432C109.615 42.0721 110.497 47.2266 110.489 50.1066C110.481 52.9226 110.347 55.0982 110.087 56.6335C109.827 58.1048 109.535 59.48 109.211 60.7591C108.888 61.9742 108.404 63.3169 107.76 64.7871C106.536 67.7918 104.515 69.6742 101.697 70.4344C98.8784 71.1947 96.0614 71.5709 93.2454 71.5632C87.9974 71.5487 83.0411 70.191 78.3766 67.4902C76.4596 66.3969 75.5039 64.8263 75.5095 62.7783C75.5125 61.6903 75.6114 60.6345 75.8063 59.6111C76.133 57.18 76.8088 55.7738 77.8339 55.3926C82.8955 53.3586 87.9863 52.3486 93.1063 52.3627C98.2263 52.3768 100.785 52.7999 100.783 53.6319C100.781 54.2079 99.9153 54.9095 98.185 55.7367C96.4549 56.4999 95.3014 57.0408 94.7245 57.3592C93.2506 58.0591 91.968 59.0156 90.8766 60.2286C91.3248 60.1658 91.9331 60.0395 92.7017 59.8496C94.3665 59.5342 95.679 59.3778 96.639 59.3805C102.336 59.0122 105.197 54.188 105.223 44.9081C105.23 42.2201 104.793 38.2508 103.912 33.0004C103.03 27.75 102.593 23.7487 102.601 20.9967C102.608 18.1808 102.968 15.5577 103.678 13.1277C99.007 12.9228 94.2398 12.6217 89.3769 12.2243C85.8576 11.9586 84.0052 10.6415 83.8197 8.27295C83.6967 6.48061 83.6363 5.16844 83.6386 4.33644C83.6423 2.99244 84.2201 2.32203 85.3721 2.3252L114.459 2.88534L125.691 2.82028ZM144.901 58.4574C144.874 68.1854 139.933 73.0358 130.077 73.0086C125.981 72.9974 122.976 71.9331 121.062 69.8158C119.212 67.6987 117.589 64.4622 116.193 60.1063C115.685 58.4409 115.434 56.6802 115.439 54.8242C115.444 52.9042 116.283 50.3785 117.956 47.2471C119.693 44.0519 121.588 41.2731 123.643 38.9108C123.909 35.3915 124.714 33.6337 126.058 33.6374C126.761 33.6394 127.24 34.0567 127.494 34.8894C128.841 33.6771 130.477 32.4976 132.4 31.3509C134.323 30.2042 136.053 29.6329 137.589 29.6372C139.125 29.6414 140.69 30.5417 142.285 32.3381C143.944 34.1347 144.771 35.993 144.766 37.913C144.761 39.769 143.442 42.3253 140.809 45.5821C135.864 51.7125 131.983 54.7738 129.167 54.7661C127.119 54.7604 125.524 53.06 124.381 49.6649C124.317 49.7927 123.995 50.3358 123.417 51.2942C122.902 52.1888 122.517 52.8597 122.259 53.307C122.066 53.7545 121.776 54.3617 121.39 55.1286C120.746 56.5989 120.423 57.91 120.419 59.062C120.412 61.686 121.721 63.0016 124.345 63.0088C128.697 63.0208 132.379 62.1349 135.392 60.3512C138.469 58.5037 141.517 55.7281 144.535 52.0244C144.783 54.8411 144.905 56.9854 144.901 58.4574ZM129.285 46.7984C130.309 46.8012 131.817 45.5573 133.808 43.0668C135.862 40.5765 136.891 38.8833 136.894 37.9873C136.896 37.0273 136.546 36.5463 135.842 36.5444C135.202 36.5426 134.047 37.3714 132.379 39.0308C130.774 40.6904 129.49 42.1269 128.527 43.3403C128.397 44.1079 128.331 44.6837 128.33 45.0677C128.327 46.2197 128.645 46.7966 129.285 46.7984ZM177.461 49.6191C177.909 49.6203 178.13 50.9649 178.122 53.6529C178.115 56.2769 177.212 58.9304 175.412 61.6135C174.64 63.1474 173.387 64.9359 171.654 66.9792C169.984 68.9586 168.861 70.1715 168.284 70.6179C166.552 71.8291 165.143 72.4332 164.055 72.4302C163.031 72.4274 162.263 72.3613 161.751 72.2319C161.239 72.1025 160.728 71.8451 160.217 71.4597C159.77 71.0104 159.387 70.6894 159.068 70.4965C158.813 70.2398 158.462 69.7908 158.016 69.1496C157.633 68.4445 157.379 67.9958 157.251 67.8035C157.124 67.6111 156.837 67.0983 156.391 66.2651C155.946 65.4319 155.723 64.9833 155.723 64.9193C154.513 62.6759 153.911 60.5623 153.917 58.5783C153.922 56.5303 154.087 54.6427 154.412 52.9156C154.801 51.1247 155.383 48.9503 156.158 46.3924C156.933 43.8345 157.418 42.2038 157.612 41.5004C156.648 42.7137 155.365 44.0222 153.761 45.4258C153.119 45.936 152.415 46.1901 151.647 46.188C150.943 46.186 150.336 45.8643 149.825 45.2229C149.379 44.5177 148.775 43.044 148.014 40.8019C147.252 38.5598 146.872 37.0548 146.874 36.2868C146.876 35.4548 147.392 34.2082 148.42 32.547C149.449 30.8218 150.06 29.6715 150.254 29.0961C150.577 27.9449 151.059 27.3703 151.699 27.372C152.019 27.3729 152.786 27.727 154 28.4344C155.214 29.0777 156.01 30.3599 156.389 32.281C156.515 33.0493 156.802 33.4341 157.25 33.4353C157.442 33.4359 157.987 33.0854 158.885 32.3838C159.847 31.6825 160.872 31.3333 161.96 31.3363C163.112 31.3395 164.805 32.3682 167.039 34.4223C167.805 35.1924 168.186 36.2815 168.182 37.6895C168.178 39.0975 168.08 40.0892 167.886 40.6647C167.756 41.2403 167.595 41.6239 167.403 41.8154C166.826 42.2618 166.376 42.9005 166.054 43.7316C165.795 44.4989 164.923 47.5045 163.437 52.7485C162.014 57.9286 161.303 60.7746 161.301 61.2866C161.3 61.7986 161.491 62.0551 161.875 62.0562C162.387 62.0576 164.439 60.5273 168.032 57.4651C171.624 54.403 174.222 52.1382 175.827 50.6706C176.788 49.9692 177.333 49.6187 177.461 49.6191ZM206.682 58.6276C206.655 68.3556 201.714 73.206 191.858 73.1788C187.762 73.1676 184.757 72.1033 182.843 69.986C180.993 67.8689 179.37 64.6324 177.974 60.2765C177.466 58.6111 177.215 56.8504 177.22 54.9944C177.225 53.0745 178.064 50.5488 179.737 47.4174C181.474 44.2221 183.369 41.4433 185.424 39.081C185.69 35.5617 186.495 33.8039 187.839 33.8076C188.543 33.8096 189.021 34.2269 189.275 35.0596C190.622 33.8473 192.258 32.6678 194.181 31.5211C196.104 30.3744 197.834 29.8031 199.37 29.8074C200.906 29.8116 202.471 30.7119 204.066 32.5083C205.725 34.3049 206.552 36.1632 206.547 38.0832C206.542 39.9392 205.223 42.4955 202.59 45.7523C197.645 51.8827 193.764 54.944 190.948 54.9363C188.9 54.9306 187.305 53.2302 186.162 49.8351C186.098 49.9629 185.777 50.506 185.198 51.4644C184.683 52.359 184.298 53.0299 184.04 53.4772C183.847 53.9247 183.557 54.5319 183.171 55.2988C182.527 56.7691 182.204 58.0802 182.2 59.2322C182.193 61.8562 183.502 63.1718 186.126 63.179C190.478 63.191 194.16 62.3051 197.173 60.5214C200.25 58.6739 203.298 55.8983 206.316 52.1946C206.564 55.0113 206.686 57.1556 206.682 58.6276ZM191.066 46.9686C192.09 46.9714 193.598 45.7275 195.589 43.237C197.643 40.7467 198.672 39.0535 198.675 38.1575C198.677 37.1975 198.327 36.7165 197.623 36.7146C196.983 36.7128 195.828 37.5416 194.16 39.2011C192.555 40.8606 191.271 42.2971 190.308 43.5105C190.178 44.2781 190.112 44.8539 190.111 45.2379C190.108 46.3899 190.426 46.9668 191.066 46.9686ZM241.96 38.9487C241.962 38.1807 241.899 37.7966 241.771 37.7962C241.515 37.7955 241.226 38.3067 240.903 39.3298C239.743 42.2706 237.03 51.4472 232.763 66.8595C232.117 69.0977 231.442 70.2159 230.738 70.2139C230.418 70.2131 229.843 69.9555 229.012 69.4412C225.755 67.0642 224.131 64.1477 224.14 60.6917C224.148 57.9397 224.606 54.197 225.515 49.4635C226.555 43.5783 227.076 40.4117 227.077 39.9637C227.079 39.4517 226.984 39.1955 226.792 39.195C226.664 39.1946 226.439 39.514 226.117 40.1531C222.831 47.9521 220.822 57.2586 220.088 68.0726C219.955 69.9922 219.312 70.9505 218.16 70.9473C216.624 70.9431 215.251 70.0433 214.039 68.2479C211.808 65.0418 210.698 61.4547 210.709 57.4867C210.716 54.9907 211.013 51.8235 211.599 47.9851C212.25 44.1469 212.64 41.812 212.771 40.9803C213.877 34.2634 214.878 30.9061 215.774 30.9086C216.478 30.9105 217.02 31.84 217.399 33.6971C217.778 35.4901 217.966 36.8026 217.964 37.6346C217.962 38.4666 218.088 38.883 218.344 38.8837C219.048 38.8856 219.754 38.1516 220.462 36.6815C221.171 35.1475 222.039 33.6458 223.067 32.1767C224.095 30.6435 225.345 29.8789 226.817 29.883C228.353 29.8872 229.76 30.4671 231.036 31.6226C232.313 32.7141 233.11 34.0603 233.425 35.6612C234.196 34.5753 235.48 33.0749 237.278 31.1598C238.241 29.8185 239.203 29.1491 240.163 29.1518C241.187 29.1546 242.658 29.6386 244.575 30.6039C247.196 31.9551 248.498 35.4787 248.482 41.1747C248.467 46.8707 248.261 51.7662 247.866 55.8611L247.864 56.5331C247.861 57.4931 248.052 57.9736 248.436 57.9747C249.012 57.9762 250.424 56.3801 252.673 53.1863C254.922 49.9285 256.303 48.3003 256.815 48.3017C257.711 48.3042 258.152 50.6094 258.14 55.2174C258.127 59.7614 256.483 64.3009 253.206 68.8358C251.664 70.9436 250.349 71.996 249.261 71.993L248.206 71.7021C245.65 70.351 243.83 68.81 242.747 67.079C241.664 65.348 241.127 62.5945 241.138 58.8186L241.96 38.9487ZM277.921 5.44769C277.915 7.55968 277.011 10.5012 275.208 14.2723C273.406 17.9793 271.703 20.6626 270.098 22.3222C269.841 22.7055 269.457 22.8964 268.945 22.895C267.345 22.8906 266.548 21.6084 266.555 19.0484C266.562 16.4884 267.692 12.9075 269.945 8.30573C270.395 7.34696 270.686 6.35576 270.817 5.33212C270.948 4.30847 271.013 3.73265 271.014 3.60465C271.078 3.41283 271.111 3.28492 271.111 3.22092C271.175 3.0931 271.208 2.96519 271.208 2.83718C271.272 2.64536 271.305 2.51745 271.305 2.45345C271.369 2.32563 271.434 2.22981 271.498 2.16598C271.562 2.03816 271.626 1.94233 271.691 1.87851C271.883 1.75104 272.395 1.68845 273.227 1.69075C274.059 1.69304 275.05 2.04777 276.2 2.75494C277.35 3.46211 277.924 4.35969 277.921 5.44769ZM278.763 48.0742C279.47 46.9881 279.952 46.4454 280.208 46.4461C280.528 46.447 280.75 47.2476 280.873 48.848C281.061 50.4485 281.151 52.5928 281.143 55.2808C281.136 57.9047 280.488 60.751 279.2 63.8194C277.976 66.8241 276.177 69.2511 273.804 71.1006C272.457 72.1209 271.208 72.6295 270.056 72.6263C268.968 72.6233 268.04 72.3967 267.273 71.9466C266.571 71.4327 265.933 70.6309 265.36 69.5413C264.404 68.0027 263.45 66.0161 262.497 63.5814C261.607 61.147 261.166 58.5217 261.174 55.7057C261.182 52.8898 261.414 50.0424 261.87 47.1636C262.326 44.2849 262.555 42.3655 262.558 41.4055C262.56 40.3815 262.052 39.1001 261.032 37.5613C260.013 35.9585 259.503 34.9971 259.504 34.6771C259.505 34.3571 259.602 34.0373 259.795 33.7179C260.052 33.3346 260.341 32.9834 260.662 32.6642C261.047 32.2813 261.4 31.9623 261.72 31.7072C262.105 31.4522 262.522 31.1334 262.971 30.7506C264.446 29.5387 265.792 28.9344 267.008 28.9377C268.224 28.9411 269.279 29.36 270.173 30.1944C271.13 31.0291 271.574 32.4703 271.505 34.5181C271.499 36.5661 271.008 40.4368 270.033 46.1301C268.797 53.4227 268.177 57.613 268.174 58.701C268.171 59.789 268.457 60.3338 269.033 60.3354C270.313 60.3389 273.557 56.2519 278.763 48.0742ZM311.588 58.9166C311.561 68.6446 306.62 73.495 296.764 73.4679C292.668 73.4566 289.663 72.3923 287.749 70.275C285.899 68.1579 284.275 64.9214 282.879 60.5656C282.372 58.9002 282.121 57.1395 282.126 55.2835C282.131 53.3635 282.97 50.8378 284.643 47.7064C286.38 44.5111 288.275 41.7324 290.33 39.37C290.596 35.8507 291.4 34.0929 292.744 34.0966C293.448 34.0986 293.927 34.5159 294.181 35.3486C295.528 34.1363 297.164 32.9568 299.087 31.8101C301.01 30.6634 302.739 30.0922 304.275 30.0964C305.811 30.1006 307.377 31.0009 308.972 32.7973C310.631 34.5939 311.458 36.4522 311.453 38.3722C311.448 40.2282 310.128 42.7846 307.496 46.0413C302.551 52.1717 298.67 55.233 295.854 55.2253C293.806 55.2196 292.211 53.5192 291.068 50.1241C291.004 50.2519 290.682 50.795 290.104 51.7534C289.589 52.648 289.203 53.319 288.946 53.7662C288.753 54.2137 288.463 54.8209 288.077 55.5879C287.433 57.0581 287.109 58.3692 287.106 59.5212C287.099 62.1452 288.407 63.4608 291.031 63.468C295.383 63.48 299.066 62.5942 302.079 60.8105C305.156 58.9629 308.204 56.1873 311.222 52.4836C311.47 55.3003 311.592 57.4447 311.588 58.9166ZM295.972 47.2576C296.996 47.2604 298.504 46.0166 300.494 43.526C302.549 41.0357 303.578 39.3425 303.58 38.4465C303.583 37.4865 303.232 37.0055 302.528 37.0036C301.888 37.0018 300.734 37.8307 299.066 39.4901C297.461 41.1497 296.177 42.5861 295.214 43.7995C295.084 44.5671 295.018 45.1429 295.017 45.5269C295.014 46.6789 295.332 47.2558 295.972 47.2576ZM101.716 63.6185C106.874 72.9767 109.439 82.9998 109.409 93.6878C109.38 104.376 106.407 114.736 100.492 124.767C98.4339 128.282 95.5491 130.034 91.8371 130.024C87.8051 130.012 85.0275 127.669 83.5044 122.993C82.8062 120.879 82.2366 118.573 81.7955 116.076C81.4185 113.515 81.1669 111.914 81.0407 111.274C80.5259 112.296 79.592 114.438 78.239 117.698C76.9502 120.894 75.8555 123.323 74.9549 124.985C73.6035 127.669 71.6798 129.008 69.1838 129.001C67.3278 128.996 65.6658 128.287 64.1976 126.875C62.9852 125.592 62.2241 123.094 61.9143 119.381C61.8536 118.165 61.7607 117.045 61.6355 116.02C61.5744 114.996 61.545 114.036 61.5475 113.14C61.5499 112.244 61.6489 111.156 61.8445 109.877C62.04 108.597 62.2353 107.382 62.4305 106.23C62.6897 105.079 63.0775 103.704 63.5939 102.106C64.1103 100.507 64.562 99.1642 64.949 98.0773C65.3362 96.9264 65.8842 95.4559 66.5931 93.6658C67.3661 91.8759 67.9458 90.5335 68.3322 89.6386C68.7189 88.6797 69.3308 87.2733 70.1679 85.4196C71.069 83.5661 71.6805 82.2878 72.0025 81.5847C72.8399 79.603 73.9022 77.3339 75.1892 74.7774C71.0171 79.1819 66.5607 82.2097 61.8201 83.8606C60.4749 84.3049 59.0983 84.5251 57.6903 84.5213C56.3463 84.5175 55.2598 83.9706 54.4308 82.8803C53.6018 81.79 53.19 80.2528 53.1955 78.2688C53.201 76.2849 54.4229 74.1442 56.8612 71.8469C59.3636 69.5498 62.1526 67.7335 65.2283 66.3979C68.304 65.0624 71.0578 64.398 73.4898 64.4047C75.9858 64.4116 78.2876 65.2179 80.3952 66.8237C82.5667 68.4297 83.6489 70.5447 83.6417 73.1687C83.639 74.1287 83.251 75.5996 82.4775 77.5815C81.7681 79.5636 80.3502 83.1437 78.2239 88.3218C73.5844 99.7651 70.4875 108.781 68.9334 115.368C68.804 115.88 68.7385 116.392 68.7371 116.904C68.7359 117.352 68.9593 117.576 69.4073 117.578C71.3273 117.583 75.1912 108.922 80.9989 91.5935C80.5525 91.0163 80.3301 90.4396 80.3317 89.8637C80.334 89.0317 81.1031 88.6178 82.6391 88.622C85.7751 88.6306 87.8869 88.7005 88.9746 88.8315C90.0622 88.9625 90.6052 89.316 90.6036 89.892C90.602 90.4679 90.3768 90.9153 89.9279 91.2341C89.2033 98.7201 88.8375 103.743 88.8304 106.303C88.8234 108.863 89.0703 112.16 89.5712 116.193C90.0721 120.227 90.8665 122.245 91.9545 122.248C92.9145 122.25 93.8778 121.069 94.8443 118.704C99.1582 109.308 101.328 100.098 101.352 91.0736C101.377 81.9856 99.0326 73.5951 94.3177 65.9021C93.6166 64.8762 93.2673 63.8832 93.2699 62.9232C93.2742 61.3872 94.3963 60.6223 96.6363 60.6285C98.8763 60.6346 100.57 61.6313 101.716 63.6185ZM69.0611 69.0005C64.7712 69.6927 61.5673 71.0919 59.4495 73.1981C58.7436 73.9001 58.3898 74.5391 58.3882 75.1151C58.3866 75.6911 58.7698 75.9802 59.5378 75.9823C61.6498 75.9881 64.8243 73.6609 69.0611 69.0005ZM141.267 118.448C141.24 128.176 136.299 133.026 126.443 132.999C122.347 132.988 119.342 131.923 117.428 129.806C115.578 127.689 113.955 124.452 112.559 120.097C112.051 118.431 111.8 116.67 111.805 114.814C111.81 112.894 112.649 110.369 114.322 107.237C116.059 104.042 117.954 101.263 120.009 98.901C120.275 95.3817 121.079 93.6239 122.423 93.6276C123.127 93.6296 123.606 94.0469 123.86 94.8796C125.207 93.6673 126.843 92.4878 128.766 91.3411C130.689 90.1944 132.419 89.6231 133.955 89.6274C135.491 89.6316 137.056 90.5319 138.651 92.3283C140.31 94.1249 141.137 95.9832 141.132 97.9032C141.127 99.7592 139.808 102.316 137.175 105.572C132.23 111.703 128.349 114.764 125.533 114.756C123.485 114.751 121.89 113.05 120.747 109.655C120.683 109.783 120.361 110.326 119.783 111.284C119.268 112.179 118.882 112.85 118.625 113.297C118.432 113.745 118.142 114.352 117.756 115.119C117.112 116.589 116.789 117.9 116.785 119.052C116.778 121.676 118.087 122.992 120.711 122.999C125.063 123.011 128.745 122.125 131.758 120.341C134.835 118.494 137.883 115.718 140.901 112.015C141.149 114.831 141.271 116.976 141.267 118.448ZM125.651 106.789C126.675 106.791 128.183 105.548 130.174 103.057C132.228 100.567 133.257 98.8735 133.26 97.9775C133.262 97.0175 132.911 96.5365 132.207 96.5346C131.567 96.5328 130.413 97.3617 128.745 99.0211C127.14 100.681 125.856 102.117 124.893 103.33C124.763 104.098 124.697 104.674 124.696 105.058C124.693 106.21 125.011 106.787 125.651 106.789ZM158.052 120.798C160.228 120.804 161.767 119.752 162.669 117.643C163.249 116.364 163.991 114.19 164.895 111.121C165.8 107.987 166.253 105.94 166.256 104.98C166.261 103.188 165.56 102.291 164.152 102.287C163.96 102.286 163.735 102.317 163.479 102.381C159.893 103.203 157.424 104.924 156.073 107.544C154.143 111.123 153.172 115.024 153.161 119.248C153.155 121.296 153.373 123.505 153.814 125.874C154.32 128.244 154.572 129.748 154.57 130.388C154.563 132.948 153.823 134.226 152.351 134.222C150.751 134.218 148.84 131.013 146.618 124.606C145.666 121.852 144.998 120.058 144.617 119.225C144.299 118.392 144.142 117.464 144.144 116.44C144.15 114.456 145.407 111.163 147.916 106.562C149.242 89.8615 151.651 74.7321 155.145 61.1737C155.532 59.8947 156.014 59.256 156.59 59.2576C157.294 59.2596 157.805 59.805 158.122 60.8938C158.503 61.9829 158.692 62.8794 158.69 63.5834C158.688 64.2234 158.36 67.1025 157.706 72.2207C157.116 77.2751 156.455 85.2094 155.721 96.0234C159.121 92.9607 162.101 91.4329 164.661 91.44C166.261 91.4444 167.636 92.0882 168.784 93.3713C169.997 94.5907 170.921 96.1292 171.555 97.987C172.761 101.638 173.36 105.096 173.351 108.36C173.328 116.744 170.393 124.832 164.548 132.624C163.392 134.157 162.206 134.921 160.99 134.918C159.39 134.914 157.858 133.213 156.396 129.817C154.933 126.421 154.204 123.731 154.21 121.747C154.213 120.787 154.566 120.308 155.27 120.31L158.052 120.798ZM192.704 88.7332C193.665 88.2879 194.978 88.0675 196.642 88.0721C198.306 88.0767 200.288 88.7541 202.588 90.1045C204.889 91.3908 206.036 92.93 206.032 94.722C206.027 96.45 205.318 98.016 203.907 99.4201C202.559 100.824 201.021 101.524 199.293 101.519C196.669 101.512 194.848 100.291 193.831 97.8564C193.704 97.472 193.48 97.2794 193.16 97.2785C192.904 97.2778 191.847 97.6589 189.989 98.4218C188.195 99.1848 186.978 99.7255 186.337 100.044C185.696 100.362 185.375 100.681 185.374 101.001C185.373 101.257 185.82 101.61 186.715 102.061C198.099 105.164 203.782 109.884 203.764 116.22C203.758 118.46 202.856 120.793 201.057 123.22C199.322 125.584 196.853 127.529 193.649 129.056C190.445 130.583 187.371 131.343 184.427 131.335C181.483 131.326 179.405 130.521 178.193 128.917C177.046 127.314 176.476 125.009 176.484 122.001C176.493 118.993 177.555 116.756 179.671 115.289C182.492 113.441 184.798 112.52 186.59 112.524C187.038 112.526 187.262 112.654 187.261 112.91C187.261 113.102 186.748 113.485 185.722 114.058C184.761 114.631 183.702 115.461 182.547 116.545C181.456 117.63 180.91 118.525 180.908 119.229C180.906 119.869 181.673 120.191 183.209 120.195C187.305 120.206 191.34 119.066 195.315 116.773C196.212 116.327 196.661 115.816 196.663 115.24C196.665 114.6 195.994 113.958 194.652 113.315C193.31 112.671 191.041 111.737 187.844 110.512C184.711 109.287 182.218 108.256 180.364 107.419C178.575 106.518 177.683 105.076 177.688 103.092C177.69 102.516 177.82 101.716 178.079 100.693C178.402 99.6059 178.596 98.8704 178.661 98.4866C178.987 96.2475 179.983 94.7142 181.65 93.8868C183.38 93.0596 187.065 91.3417 192.704 88.7332ZM226.756 65.307C226.75 67.4189 225.846 70.3605 224.043 74.1315C222.241 77.8386 220.538 80.5219 218.933 82.1815C218.676 82.5648 218.292 82.7557 217.78 82.7543C216.18 82.7499 215.383 81.4677 215.39 78.9077C215.397 76.3477 216.527 72.7668 218.78 68.165C219.23 67.2062 219.521 66.215 219.652 65.1914C219.783 64.1677 219.848 63.5919 219.849 63.4639C219.913 63.2721 219.946 63.1442 219.946 63.0802C220.01 62.9524 220.042 62.8245 220.043 62.6965C220.107 62.5046 220.14 62.3767 220.14 62.3127C220.204 62.1849 220.268 62.0891 220.333 62.0252C220.397 61.8974 220.461 61.8016 220.525 61.7378C220.718 61.6103 221.23 61.5477 222.062 61.55C222.894 61.5523 223.885 61.907 225.035 62.6142C226.185 63.3214 226.759 64.219 226.756 65.307ZM227.598 107.933C228.305 106.847 228.787 106.305 229.043 106.305C229.363 106.306 229.584 107.107 229.708 108.707C229.896 110.308 229.986 112.452 229.978 115.14C229.971 117.764 229.323 120.61 228.035 123.679C226.811 126.683 225.012 129.11 222.639 130.96C221.292 131.98 220.043 132.489 218.891 132.486C217.803 132.483 216.875 132.256 216.108 131.806C215.406 131.292 214.768 130.49 214.195 129.401C213.239 127.862 212.285 125.875 211.331 123.441C210.442 121.006 210.001 118.381 210.009 115.565C210.017 112.749 210.249 109.902 210.705 107.023C211.161 104.144 211.39 102.225 211.393 101.265C211.395 100.241 210.887 98.9594 209.867 97.4205C208.848 95.8177 208.338 94.8563 208.339 94.5363C208.34 94.2163 208.437 93.8966 208.63 93.5771C208.887 93.1938 209.176 92.8426 209.497 92.5235C209.882 92.1406 210.235 91.8215 210.555 91.5664C210.94 91.3115 211.357 90.9926 211.806 90.6099C213.281 89.3979 214.627 88.7936 215.843 88.797C217.059 88.8003 218.114 89.2192 219.007 90.0537C219.965 90.8883 220.409 92.3296 220.34 94.3774C220.334 96.4254 219.843 100.296 218.868 105.989C217.631 113.282 217.012 117.472 217.009 118.56C217.006 119.648 217.292 120.193 217.868 120.195C219.148 120.198 222.392 116.111 227.598 107.933ZM252.933 88.8032C254.917 88.8086 255.905 90.0914 255.898 92.6513C255.895 93.9313 255.476 94.8902 254.642 95.5279C252.589 97.3782 249.066 98.6485 244.072 99.3388C243.415 105.417 243.081 110.472 243.07 114.504C243.059 118.536 243.341 120.553 243.917 120.554C244.301 120.556 245.648 119.535 247.958 117.494C250.267 115.452 251.55 114.431 251.806 114.432C252.894 114.435 253.434 116.101 253.424 119.429C253.415 122.693 252.798 125.923 251.574 129.12C250.349 132.316 248.616 133.911 246.376 133.905C245.416 133.903 244.457 133.58 243.499 132.937C242.541 132.231 241.807 131.557 241.297 130.915C240.851 130.21 240.181 129.184 239.289 127.838C238.461 126.491 237.951 125.69 237.76 125.434C236.038 123.061 235.085 120.722 234.899 118.418C234.778 116.049 234.721 113.297 234.73 110.161C234.738 107.025 234.94 103.634 235.334 99.9867C233.35 99.9173 231.688 99.2087 230.348 97.861C229.071 96.5135 228.084 94.9107 227.385 93.0528C226.622 91.1307 226.241 90.0416 226.242 89.7856C226.244 88.9536 226.725 88.539 227.685 88.5416L236.9 89.143C237.225 87.1599 237.745 84.4093 238.458 80.8913C239.561 75.7743 240.113 72.7998 240.115 71.9678L239.928 70.1433C239.931 69.1193 240.508 68.6089 241.66 68.612C242.812 68.6152 244.219 69.1951 245.88 70.3517C247.54 71.5082 248.369 72.5985 248.367 73.6225C248.365 74.0705 248.139 74.9659 247.687 76.3087C247.106 78.3551 246.326 82.6409 245.348 89.1663L252.933 88.8032ZM285.735 118.846C285.709 128.574 280.767 133.424 270.911 133.397C266.815 133.386 263.81 132.321 261.896 130.204C260.046 128.087 258.423 124.85 257.027 120.495C256.519 118.829 256.268 117.068 256.273 115.212C256.279 113.292 257.118 110.767 258.79 107.635C260.527 104.44 262.423 101.661 264.477 99.299C264.743 95.7797 265.548 94.0219 266.892 94.0256C267.596 94.0276 268.075 94.4449 268.328 95.2776C269.676 94.0653 271.311 92.8858 273.234 91.7391C275.157 90.5924 276.887 90.0212 278.423 90.0254C279.959 90.0296 281.524 90.9299 283.119 92.7263C284.778 94.5229 285.605 96.3812 285.6 98.3012C285.595 100.157 284.276 102.714 281.643 105.97C276.698 112.101 272.817 115.162 270.001 115.154C267.953 115.149 266.358 113.448 265.216 110.053C265.151 110.181 264.83 110.724 264.251 111.682C263.737 112.577 263.351 113.248 263.093 113.695C262.9 114.143 262.611 114.75 262.224 115.517C261.58 116.987 261.257 118.298 261.254 119.45C261.246 122.074 262.555 123.39 265.179 123.397C269.531 123.409 273.213 122.523 276.226 120.739C279.303 118.892 282.351 116.116 285.369 112.413C285.617 115.229 285.739 117.374 285.735 118.846ZM270.119 107.187C271.143 107.189 272.651 105.946 274.642 103.455C276.697 100.965 277.725 99.2715 277.728 98.3755C277.73 97.4155 277.38 96.9345 276.676 96.9326C276.036 96.9308 274.881 97.7597 273.213 99.4191C271.608 101.079 270.324 102.515 269.361 103.728C269.231 104.496 269.165 105.072 269.164 105.456C269.161 106.608 269.479 107.185 270.119 107.187Z" fill="#E48900"/>
</g>
<defs>
<filter id="filter0_d_1_2" x="0.186707" y="0.945038" width="313.559" height="141.387" filterUnits="userSpaceOnUse" color-interpolation-filters="sRGB">
<feFlood flood-opacity="0" result="BackgroundImageFix"/>
<feColorMatrix in="SourceAlpha" type="matrix" values="0 0 0 0 0 0 0 0 0 0 0 0 0 0 0 0 0 0 127 0" result="hardAlpha"/>
<feOffset dy="5"/>
<feGaussianBlur stdDeviation="1"/>
<feComposite in2="hardAlpha" operator="out"/>
<feColorMatrix type="matrix" values="0 0 0 0 0 0 0 0 0 0 0 0 0 0 0 0 0 0 0.25 0"/>
<feBlend mode="normal" in2="BackgroundImageFix" result="effect1_dropShadow_1_2"/>
<feBlend mode="normal" in="SourceGraphic" in2="effect1_dropShadow_1_2" result="shape"/>
</filter>
</defs>
</svg>
